<svg width="108" height="108" viewBox="0 0 108 108" fill="none" xmlns="http://www.w3.org/2000/svg">
<path d="M108 0H0L108 108V0Z" fill="#7F7CDA"/>
<g clip-path="url(#clip0_3:63)">
<path d="M45.941 53.7532L51.7015 47.9927C50.2202 46.8406 49.5619 46.1823 49.2327 45.8531C46.7639 43.3843 46.1056 40.4218 47.4223 37.1301C47.916 35.978 48.2452 34.6613 48.2452 33.6738C48.2452 33.3446 48.2452 33.0155 48.2452 32.3571C48.2452 31.6988 48.0806 31.205 48.0806 30.5467C47.916 30.0529 47.916 29.7238 48.0806 29.5592C48.4098 29.23 48.7389 29.5592 49.3973 30.2175C50.0556 30.8759 50.5494 31.6988 50.714 32.5217C50.8785 33.3446 51.0431 34.1676 50.8785 34.9905C50.714 35.8134 50.5494 36.6363 50.5494 37.6238C50.3848 38.4468 50.5494 39.2697 50.714 40.0926C50.8786 40.9155 51.3723 41.7385 52.1952 42.5614C53.1827 43.5489 54.1703 44.2072 55.4869 44.8656C56.9682 43.7135 58.7786 43.5489 60.4245 43.8781C56.9682 39.7635 55.1578 35.978 54.8286 32.6863C54.4994 29.3946 56.1453 25.7737 59.7661 22.1528C62.3995 19.5195 65.5266 18.0382 68.9829 17.8736C69.9704 16.5569 70.6288 15.5694 71.6163 14.5819C72.933 13.2652 74.5788 12.2777 76.3893 11.784C77.7059 13.1007 78.6934 14.4173 79.1872 15.8986C79.681 17.3799 80.1747 19.1903 80.5039 21.4945C82.6435 22.9758 84.7831 24.457 86.9227 26.5966C88.7331 28.4071 90.2144 30.2175 91.5311 32.1925C93.8353 32.5217 95.6457 33.0155 96.9624 33.6738C98.4437 34.1676 99.7604 35.1551 101.077 36.4718C100.583 38.2822 99.5958 39.928 98.2791 41.2447C97.2916 42.2322 96.1395 43.0552 94.9874 43.5489C94.8228 47.0052 93.3415 50.1323 90.7082 52.7657C87.0873 56.3866 83.631 57.8678 80.1747 57.7032C76.7184 57.5387 73.0975 55.5636 68.9829 52.1073C69.4767 54.9053 68.6537 57.0449 66.8433 58.8553L58.9432 66.7554L45.941 53.7532Z" fill="#3F3EC2"/>
</g>
<defs>
<clipPath id="clip0_3:63">
<rect width="46.5517" height="51.2069" fill="white" transform="translate(71.1225 6.51724) rotate(45)"/>
</clipPath>
</defs>
</svg>
